
<global>
ampeg_attack=0.001
ampeg_release=1.5
</global>

<group>
group_label=RR1
seq_length=4
seq_position=1

<region>
hivel=103
key=D3
lovel=78
offset=699
sample=Bass_a4_Brushes_Hits_F_D4_RR1.opus
</region>

<region>
hivel=127
key=D3
lovel=104
offset=709
sample=Bass_a4_Brushes_Hits_FF_D4_RR1.opus
</region>

<region>
hivel=77
key=D3
lovel=52
offset=4197
sample=Bass_a4_Brushes_Hits_MF_D4_RR1.opus
</region>

<region>
hivel=51
key=D3
lovel=26
offset=5345
sample=Bass_a4_Brushes_Hits_MP_D4_RR1.opus
</region>

<region>
hivel=25
key=D3
lovel=0
offset=4234
sample=Bass_a4_Brushes_Hits_P_D4_RR1.opus
</region>
</group>

<group>
group_label=RR3
seq_length=4
seq_position=2

<region>
hivel=103
key=D3
lovel=78
offset=728
sample=Bass_a4_Brushes_Hits_F_D4_RR3.opus
</region>

<region>
hivel=127
key=D3
lovel=104
offset=696
sample=Bass_a4_Brushes_Hits_FF_D4_RR3.opus
</region>

<region>
hivel=77
key=D3
lovel=52
offset=4460
sample=Bass_a4_Brushes_Hits_MF_D4_RR3.opus
</region>

<region>
hivel=51
key=D3
lovel=26
offset=4914
sample=Bass_a4_Brushes_Hits_MP_D4_RR3.opus
</region>

<region>
hivel=25
key=D3
lovel=0
offset=3939
sample=Bass_a4_Brushes_Hits_P_D4_RR3.opus
</region>
</group>

<group>
group_label=RR5
seq_length=4
seq_position=3

<region>
hivel=103
key=D3
lovel=78
offset=4570
sample=Bass_a4_Brushes_Hits_F_D4_RR5.opus
</region>

<region>
hivel=127
key=D3
lovel=104
offset=805
sample=Bass_a4_Brushes_Hits_FF_D4_RR5.opus
</region>

<region>
hivel=77
key=D3
lovel=52
offset=4384
sample=Bass_a4_Brushes_Hits_MF_D4_RR5.opus
</region>

<region>
hivel=51
key=D3
lovel=26
offset=4803
sample=Bass_a4_Brushes_Hits_MP_D4_RR5.opus
</region>

<region>
hivel=25
key=D3
lovel=0
offset=3712
sample=Bass_a4_Brushes_Hits_P_D4_RR5.opus
</region>
</group>

<group>
group_label=RR7
seq_length=4
seq_position=4

<region>
hivel=103
key=D3
lovel=78
offset=1204
sample=Bass_a4_Brushes_Hits_F_D4_RR7.opus
</region>

<region>
hivel=127
key=D3
lovel=104
offset=707
sample=Bass_a4_Brushes_Hits_FF_D4_RR7.opus
</region>

<region>
hivel=77
key=D3
lovel=52
offset=5091
sample=Bass_a4_Brushes_Hits_MF_D4_RR7.opus
</region>

<region>
hivel=51
key=D3
lovel=26
offset=4495
sample=Bass_a4_Brushes_Hits_MP_D4_RR7.opus
</region>

<region>
hivel=25
key=D3
lovel=0
offset=3256
sample=Bass_a4_Brushes_Hits_P_D4_RR7.opus
</region>
</group>

<group>
group_label=Rim_RR1
seq_length=2
seq_position=1

<region>
hivel=103
key=E3
lovel=78
offset=3421
sample=Bass_a4_Brushes_Rim_Hit_F_D4_RR1.opus
</region>

<region>
hivel=127
key=E3
lovel=104
offset=4789
sample=Bass_a4_Brushes_Rim_Hit_FF_D4_RR1.opus
</region>

<region>
hivel=77
key=E3
lovel=52
offset=4101
sample=Bass_a4_Brushes_Rim_Hit_MF_D4_RR1.opus
</region>

<region>
hivel=51
key=E3
lovel=26
offset=4474
sample=Bass_a4_Brushes_Rim_Hit_MP_D4_RR1.opus
</region>

<region>
hivel=25
key=E3
lovel=0
offset=4100
sample=Bass_a4_Brushes_Rim_Hit_P_D4_RR1.opus
</region>
</group>

<group>
group_label=Rim_RR3
seq_length=2
seq_position=2

<region>
hivel=103
key=E3
lovel=78
offset=3590
sample=Bass_a4_Brushes_Rim_Hit_F_D4_RR3.opus
</region>

<region>
hivel=127
key=E3
lovel=104
offset=3965
sample=Bass_a4_Brushes_Rim_Hit_FF_D4_RR3.opus
</region>

<region>
hivel=77
key=E3
lovel=52
offset=3746
sample=Bass_a4_Brushes_Rim_Hit_MF_D4_RR3.opus
</region>

<region>
hivel=51
key=E3
lovel=26
offset=6197
sample=Bass_a4_Brushes_Rim_Hit_MP_D4_RR3.opus
</region>

<region>
hivel=25
key=E3
lovel=0
offset=5018
sample=Bass_a4_Brushes_Rim_Hit_P_D4_RR3.opus
</region>
</group>